<svg width="1728" height="1117" viewBox="0 0 1728 1117" fill="none" xmlns="http://www.w3.org/2000/svg">
<g clip-path="url(#clip0_5_3)">
<rect width="1728" height="1117" fill="#5A92AF"/>
<g filter="url(#filter0_f_5_3)">
<path fill-rule="evenodd" clip-rule="evenodd" d="M803.037 422.973C885.994 428.004 965.748 459.016 1020.66 517.373C1072.5 572.462 1079.99 647.543 1083.34 720.853C1086.91 798.859 1095.25 883.883 1040.11 942.514C982.727 1003.52 889.868 1015.93 803.037 1018.88C712.033 1021.97 596.774 1031.18 548.106 959.216C499.869 887.889 600.215 805.234 601.492 720.853C602.728 639.18 508.516 558.169 555.22 489.141C602.965 418.574 713.917 417.567 803.037 422.973Z" fill="#86C1D4"/>
</g>
<g filter="url(#filter1_f_5_3)">
<path fill-rule="evenodd" clip-rule="evenodd" d="M302.473 291C411.433 273.886 504.069 369.915 570.265 452.411C627.333 523.53 633.363 613.295 632.359 702.114C631.37 789.609 637.415 891.323 564.682 946.61C494.233 1000.16 393.261 948.848 302.473 952.871C202.431 957.304 95.4699 1025.46 14.1005 971.006C-70.6465 914.296 -93.1234 797.413 -72.2563 702.114C-53.8856 618.215 52.4176 589.652 111.89 524.405C182.492 446.947 194.968 307.885 302.473 291Z" fill="#9CD9DE"/>
</g>
<g filter="url(#filter2_f_5_3)">
<path fill-rule="evenodd" clip-rule="evenodd" d="M1233.4 180.897C1312.71 170.019 1398.21 179.487 1458 240.557C1520.5 304.408 1537.53 403.676 1545.32 499.545C1554.19 608.603 1574.46 738.059 1504.46 812.117C1435.15 885.462 1325.95 849.041 1233.4 829.593C1161.16 814.413 1103.94 767.621 1045.9 715.756C974.352 651.825 861.399 603.872 864.046 499.545C866.694 395.136 984.023 358.195 1056.55 295.622C1112.85 247.051 1163.58 190.475 1233.4 180.897Z" fill="#86C1D4"/>
</g>
<g filter="url(#filter3_f_5_3)">
<path fill-rule="evenodd" clip-rule="evenodd" d="M1492.35 722.878C1575.6 727.872 1651.72 762.565 1712.89 819.262C1776.85 878.559 1835.91 952.587 1834.23 1039.79C1832.57 1125.95 1775.58 1203.21 1704.53 1251.97C1643.57 1293.81 1565.99 1281.09 1492.35 1274.44C1428.1 1268.63 1360.7 1262.68 1315.32 1216.82C1270.13 1171.15 1270.85 1103.16 1260.18 1039.79C1245.85 954.63 1192.64 860.784 1243.67 791.117C1296.48 719.033 1403.15 717.528 1492.35 722.878Z" fill="#D9F9F4"/>
</g>
<g filter="url(#filter4_f_5_3)">
<path fill-rule="evenodd" clip-rule="evenodd" d="M928.151 -112.759C1009.67 -107.997 1083.7 -73.8445 1144.47 -19.3C1209.39 38.9742 1284.8 110.544 1273.26 197.017C1262.07 280.909 1157.99 307.547 1093.55 362.42C1038.3 409.475 999.774 479.176 928.151 490.905C846.476 504.281 756.583 485.63 697.962 427.206C639.277 368.717 635.545 279.841 633.276 197.017C630.916 110.905 625.597 16.2533 684.992 -46.1425C745.227 -109.422 840.935 -117.854 928.151 -112.759Z" fill="#D9F9F4"/>
</g>
<g filter="url(#filter5_f_5_3)">
<path fill-rule="evenodd" clip-rule="evenodd" d="M1465.34 -242.719C1542.26 -230.548 1564.81 -134.35 1622.72 -82.2835C1687.53 -24.0253 1810.22 -11.6141 1818.86 75.0964C1827.47 161.619 1728.59 217.169 1657.54 267.288C1600.76 307.339 1534.75 321.177 1465.34 324.46C1391.04 327.974 1299.45 345.315 1254.07 286.369C1209.23 228.117 1274.28 148.606 1273.37 75.0964C1272.44 -0.418365 1209.75 -76.8097 1248.8 -141.452C1291.63 -212.359 1383.52 -255.666 1465.34 -242.719Z" fill="#9CD9DE"/>
</g>
<g filter="url(#filter6_f_5_3)">
<path fill-rule="evenodd" clip-rule="evenodd" d="M259.794 -41.6258C344.859 -44.5843 436.145 -21.8455 489.724 42.6331C540.205 103.383 511.318 188.741 516.07 266.786C521.389 354.115 575.666 451.598 518.748 519.233C460.635 588.288 351.389 569.087 259.794 571.315C164.476 573.634 53.271 599.531 -12.4147 532.155C-77.6631 465.227 -48.3331 358.467 -37.0937 266.786C-27.6546 189.791 -8.72672 114.619 45.7043 58.0755C101.966 -0.370008 177.629 -38.7682 259.794 -41.6258Z" fill="#D9F9F4"/>
</g>
<rect opacity="0.2" width="1728" height="1117" fill="#5A92AF"/>
</g>
<defs>
<filter id="filter0_f_5_3" x="35" y="-79" width="1551" height="1600" filterUnits="userSpaceOnUse" color-interpolation-filters="sRGB">
<feFlood flood-opacity="0" result="BackgroundImageFix"/>
<feBlend mode="normal" in="SourceGraphic" in2="BackgroundImageFix" result="shape"/>
<feGaussianBlur stdDeviation="250" result="effect1_foregroundBlur_5_3"/>
</filter>
<filter id="filter1_f_5_3" x="-579.546" y="-211" width="1712" height="1703" filterUnits="userSpaceOnUse" color-interpolation-filters="sRGB">
<feFlood flood-opacity="0" result="BackgroundImageFix"/>
<feBlend mode="normal" in="SourceGraphic" in2="BackgroundImageFix" result="shape"/>
<feGaussianBlur stdDeviation="250" result="effect1_foregroundBlur_5_3"/>
</filter>
<filter id="filter2_f_5_3" x="364" y="-323" width="1691" height="1679" filterUnits="userSpaceOnUse" color-interpolation-filters="sRGB">
<feFlood flood-opacity="0" result="BackgroundImageFix"/>
<feBlend mode="normal" in="SourceGraphic" in2="BackgroundImageFix" result="shape"/>
<feGaussianBlur stdDeviation="250" result="effect1_foregroundBlur_5_3"/>
</filter>
<filter id="filter3_f_5_3" x="722" y="221" width="1612.26" height="1560.58" filterUnits="userSpaceOnUse" color-interpolation-filters="sRGB">
<feFlood flood-opacity="0" result="BackgroundImageFix"/>
<feBlend mode="normal" in="SourceGraphic" in2="BackgroundImageFix" result="shape"/>
<feGaussianBlur stdDeviation="250" result="effect1_foregroundBlur_5_3"/>
</filter>
<filter id="filter4_f_5_3" x="132" y="-614" width="1642.44" height="1609.03" filterUnits="userSpaceOnUse" color-interpolation-filters="sRGB">
<feFlood flood-opacity="0" result="BackgroundImageFix"/>
<feBlend mode="normal" in="SourceGraphic" in2="BackgroundImageFix" result="shape"/>
<feGaussianBlur stdDeviation="250" result="effect1_foregroundBlur_5_3"/>
</filter>
<filter id="filter5_f_5_3" x="736" y="-745" width="1583.38" height="1574.55" filterUnits="userSpaceOnUse" color-interpolation-filters="sRGB">
<feFlood flood-opacity="0" result="BackgroundImageFix"/>
<feBlend mode="normal" in="SourceGraphic" in2="BackgroundImageFix" result="shape"/>
<feGaussianBlur stdDeviation="250" result="effect1_foregroundBlur_5_3"/>
</filter>
<filter id="filter6_f_5_3" x="-553.463" y="-541.878" width="1598" height="1620" filterUnits="userSpaceOnUse" color-interpolation-filters="sRGB">
<feFlood flood-opacity="0" result="BackgroundImageFix"/>
<feBlend mode="normal" in="SourceGraphic" in2="BackgroundImageFix" result="shape"/>
<feGaussianBlur stdDeviation="250" result="effect1_foregroundBlur_5_3"/>
</filter>
<clipPath id="clip0_5_3">
<rect width="1728" height="1117" fill="white"/>
</clipPath>
</defs>
</svg>
